# xmcd CD database file generated by Grip 2.95
# 
# Track frame offsets:
#       200
#       20957
#       33095
#       45535
#       60077
#       80072
#       99795
#       111827
#       131995
#       147472
#       163570
#       181127
# 
# Disc length: 2562 seconds
# 
# Revision: 3
# Processed by: cddbd v1.4b42PL1 Copyright (c) Steve Scherf et al.
# Submitted via: Grip 2.95
# 
DISCID=9a0a000c
DTITLE=Leon Russell - Blues
DYEAR=1900
DGENRE=
TTITLE0=Ways Of A Woman
TTITLE1=House Of Blues
TTITLE2=Rip Van Winkle
TTITLE3=This Love I Have For You
TTITLE4=Lost Inside The Blues
TTITLE5=Dark Carousel
TTITLE6=It's Impossible
TTITLE7=My Hard Times
TTITLE8=Strange Power Of Love
TTITLE9=Make Everything Alright
TTITLE10=The Same Old Song
TTITLE11=End Of The Road
EXTD=
EXTT0=
EXTT1=
EXTT2=
EXTT3=
EXTT4=
EXTT5=
EXTT6=
EXTT7=
EXTT8=
EXTT9=
EXTT10=
EXTT11=
PLAYORDER=
